<svg width="401" height="402" viewBox="0 0 401 402" fill="none" xmlns="http://www.w3.org/2000/svg">
<path opacity="0.5" d="M1 1H0V401H1V1Z" fill="#353A45"/>
<path opacity="0.2" d="M21.003 1H20V402H21.003V1Z" fill="#353A45"/>
<path opacity="0.2" d="M41.003 1H40V402H41.003V1Z" fill="#353A45"/>
<path opacity="0.2" d="M61.003 1H60V402H61.003V1Z" fill="#353A45"/>
<path opacity="0.2" d="M81.002 1H80V402H81.002V1Z" fill="#353A45"/>
<path opacity="0.5" d="M101.003 1H100V402H101.003V1Z" fill="#353A45"/>
<path opacity="0.2" d="M121.002 1H120V402H121.002V1Z" fill="#353A45"/>
<path opacity="0.2" d="M141.002 1H140V402H141.002V1Z" fill="#353A45"/>
<path opacity="0.2" d="M161.002 1H160V402H161.002V1Z" fill="#353A45"/>
<path opacity="0.2" d="M181.002 1H180V402H181.002V1Z" fill="#353A45"/>
<path opacity="0.5" d="M202.003 1H201V402H202.003V1Z" fill="#353A45"/>
<path opacity="0.2" d="M222.002 1H221V402H222.002V1Z" fill="#353A45"/>
<path opacity="0.2" d="M242.003 1H241V402H242.003V1Z" fill="#353A45"/>
<path opacity="0.2" d="M262.003 1H261V402H262.003V1Z" fill="#353A45"/>
<path opacity="0.2" d="M282.002 1H281V402H282.002V1Z" fill="#353A45"/>
<path opacity="0.5" d="M302.002 1H301V402H302.002V1Z" fill="#353A45"/>
<path opacity="0.2" d="M322.002 1H321V402H322.002V1Z" fill="#353A45"/>
<path opacity="0.2" d="M342.003 1H341V402H342.003V1Z" fill="#353A45"/>
<path opacity="0.2" d="M362.003 1H361V402H362.003V1Z" fill="#353A45"/>
<path opacity="0.2" d="M382.002 1H381V402H382.002V1Z" fill="#353A45"/>
<path opacity="0.5" d="M401 1H400V402H401V1Z" fill="#353A45"/>
<path opacity="0.5" d="M401 0H0V1H401V0Z" fill="#353A45"/>
<path opacity="0.2" d="M400 20H1V21H400V20Z" fill="#353A45"/>
<path opacity="0.2" d="M400 40H1V41H400V40Z" fill="#353A45"/>
<path opacity="0.2" d="M400 60H1V61H400V60Z" fill="#353A45"/>
<path opacity="0.2" d="M400 80H1V81H400V80Z" fill="#353A45"/>
<path opacity="0.5" d="M400 100H1V101H400V100Z" fill="#353A45"/>
<path opacity="0.2" d="M400 121H1V122H400V121Z" fill="#353A45"/>
<path opacity="0.2" d="M400 141H1V142H400V141Z" fill="#353A45"/>
<path opacity="0.2" d="M400 161H1V162H400V161Z" fill="#353A45"/>
<path opacity="0.2" d="M400 181H1V182H400V181Z" fill="#353A45"/>
<path opacity="0.5" d="M400 201H1V202H400V201Z" fill="#353A45"/>
<path opacity="0.2" d="M400 221H1V222H400V221Z" fill="#353A45"/>
<path opacity="0.2" d="M400 241H1V242H400V241Z" fill="#353A45"/>
<path opacity="0.2" d="M400 261H1V262H400V261Z" fill="#353A45"/>
<path opacity="0.2" d="M400 281H1V282H400V281Z" fill="#353A45"/>
<path opacity="0.5" d="M400 301H1V302H400V301Z" fill="#353A45"/>
<path opacity="0.2" d="M400 321H1V322H400V321Z" fill="#353A45"/>
<path opacity="0.2" d="M400 341H1V342H400V341Z" fill="#353A45"/>
<path opacity="0.2" d="M400 361H1V362H400V361Z" fill="#353A45"/>
<path opacity="0.2" d="M400 381H1V382H400V381Z" fill="#353A45"/>
<path opacity="0.5" d="M400 401H0V402H400V401Z" fill="#353A45"/>
</svg>
